<mxfile host="app.diagrams.net" modified="2022-11-08T10:41:14.894Z" agent="5.0 (Windows NT 10.0; Win64; x64) AppleWebKit/537.36 (KHTML, like Gecko) Chrome/107.0.0.0 Safari/537.36" etag="EbDd1N3pY2yzf1UDPX58" version="20.5.1" type="github">
  <diagram id="C5RBs43oDa-KdzZeNtuy" name="Page-1">
    <mxGraphModel dx="1661" dy="784" grid="1" gridSize="10" guides="1" tooltips="1" connect="1" arrows="1" fold="1" page="1" pageScale="1" pageWidth="827" pageHeight="1169" math="0" shadow="0">
      <root>
        <mxCell id="WIyWlLk6GJQsqaUBKTNV-0" />
        <mxCell id="WIyWlLk6GJQsqaUBKTNV-1" parent="WIyWlLk6GJQsqaUBKTNV-0" />
        <mxCell id="zMWVhqcBgmvhn7BQUQTd-0" value="&lt;span style=&quot;font-family: ui-monospace, SFMono-Regular, &amp;quot;SF Mono&amp;quot;, Menlo, Consolas, &amp;quot;Liberation Mono&amp;quot;, monospace; font-size: 13.6px; text-align: left; background-color: rgb(255, 255, 255);&quot;&gt;uint8_t get_parity(uint8_t data, uint8_t type)&lt;/span&gt;" style="ellipse;whiteSpace=wrap;html=1;" vertex="1" parent="WIyWlLk6GJQsqaUBKTNV-1">
          <mxGeometry x="320" y="80" width="240" height="100" as="geometry" />
        </mxCell>
        <mxCell id="zMWVhqcBgmvhn7BQUQTd-1" value="" style="endArrow=classic;html=1;rounded=0;fontColor=#000000;" edge="1" parent="WIyWlLk6GJQsqaUBKTNV-1" source="zMWVhqcBgmvhn7BQUQTd-0">
          <mxGeometry width="50" height="50" relative="1" as="geometry">
            <mxPoint x="390" y="240" as="sourcePoint" />
            <mxPoint x="440" y="240" as="targetPoint" />
          </mxGeometry>
        </mxCell>
        <mxCell id="zMWVhqcBgmvhn7BQUQTd-2" value="uint8_t;&lt;br&gt;uint8_t counter;&lt;br&gt;char str[8];" style="rounded=0;whiteSpace=wrap;html=1;labelBackgroundColor=#FFFFFF;fontColor=#000000;" vertex="1" parent="WIyWlLk6GJQsqaUBKTNV-1">
          <mxGeometry x="370" y="240" width="140" height="80" as="geometry" />
        </mxCell>
        <mxCell id="zMWVhqcBgmvhn7BQUQTd-8" value="" style="edgeStyle=orthogonalEdgeStyle;rounded=0;orthogonalLoop=1;jettySize=auto;html=1;fontColor=#000000;" edge="1" parent="WIyWlLk6GJQsqaUBKTNV-1" source="zMWVhqcBgmvhn7BQUQTd-5" target="zMWVhqcBgmvhn7BQUQTd-7">
          <mxGeometry relative="1" as="geometry" />
        </mxCell>
        <mxCell id="zMWVhqcBgmvhn7BQUQTd-5" value="itoa(data,str,10);" style="rounded=0;whiteSpace=wrap;html=1;labelBackgroundColor=#FFFFFF;fontColor=#000000;" vertex="1" parent="WIyWlLk6GJQsqaUBKTNV-1">
          <mxGeometry x="370" y="360" width="140" height="80" as="geometry" />
        </mxCell>
        <mxCell id="zMWVhqcBgmvhn7BQUQTd-6" value="" style="endArrow=classic;html=1;rounded=0;fontColor=#000000;exitX=0.5;exitY=1;exitDx=0;exitDy=0;" edge="1" parent="WIyWlLk6GJQsqaUBKTNV-1" source="zMWVhqcBgmvhn7BQUQTd-2">
          <mxGeometry width="50" height="50" relative="1" as="geometry">
            <mxPoint x="390" y="430" as="sourcePoint" />
            <mxPoint x="440" y="360" as="targetPoint" />
            <Array as="points" />
          </mxGeometry>
        </mxCell>
        <mxCell id="zMWVhqcBgmvhn7BQUQTd-7" value="for i=0, i&amp;lt;=" style="rhombus;whiteSpace=wrap;html=1;fontColor=#000000;rounded=0;labelBackgroundColor=#FFFFFF;" vertex="1" parent="WIyWlLk6GJQsqaUBKTNV-1">
          <mxGeometry x="352.5" y="480" width="175" height="160" as="geometry" />
        </mxCell>
      </root>
    </mxGraphModel>
  </diagram>
</mxfile>
